<mxfile host="65bd71144e" pages="2">
    <diagram name="Completar una tarea" id="FnsAHBY5pGe1MP7AjauQ">
        <mxGraphModel dx="1605" dy="731" grid="1" gridSize="10" guides="1" tooltips="1" connect="1" arrows="1" fold="1" page="1" pageScale="1" pageWidth="1100" pageHeight="850" background="none" math="0" shadow="0">
            <root>
                <mxCell id="BZjlU1Gn6342W11Db-ve-0"/>
                <mxCell id="BZjlU1Gn6342W11Db-ve-1" parent="BZjlU1Gn6342W11Db-ve-0"/>
                <mxCell id="QEkqiXynA9mE9_N4oODn-0" value="" style="rounded=0;whiteSpace=wrap;html=1;" vertex="1" parent="BZjlU1Gn6342W11Db-ve-1">
                    <mxGeometry x="70" y="90" width="990" height="590" as="geometry"/>
                </mxCell>
                <mxCell id="BZjlU1Gn6342W11Db-ve-2" value="Gestor de Tareas" style="shape=umlLifeline;perimeter=lifelinePerimeter;whiteSpace=wrap;html=1;container=1;collapsible=0;recursiveResize=0;outlineConnect=0;rounded=1;shadow=0;comic=0;labelBackgroundColor=none;strokeWidth=1;fontFamily=Helvetica;fontSize=13;align=center;fontColor=#000000;" parent="BZjlU1Gn6342W11Db-ve-1" vertex="1">
                    <mxGeometry x="529" y="240" width="100" height="400" as="geometry"/>
                </mxCell>
                <mxCell id="BZjlU1Gn6342W11Db-ve-3" value="" style="html=1;points=[];perimeter=orthogonalPerimeter;rounded=0;shadow=0;comic=0;labelBackgroundColor=none;strokeWidth=1;fontFamily=Helvetica;fontSize=13;align=center;fontColor=#000000;" parent="BZjlU1Gn6342W11Db-ve-2" vertex="1">
                    <mxGeometry x="45" y="120" width="10" height="240" as="geometry"/>
                </mxCell>
                <mxCell id="BmrQgxuJ7BoIYuR6pkmq-3" value="" style="html=1;verticalAlign=bottom;endArrow=block;labelBackgroundColor=none;fontFamily=Helvetica;fontSize=13;elbow=vertical;edgeStyle=orthogonalEdgeStyle;curved=1;exitX=1.049;exitY=0.173;exitPerimeter=0;exitDx=0;exitDy=0;fontColor=#000000;" parent="BZjlU1Gn6342W11Db-ve-2" edge="1">
                    <mxGeometry relative="1" as="geometry">
                        <mxPoint x="55.49000000000001" y="144.51999999999998" as="sourcePoint"/>
                        <mxPoint x="55" y="182" as="targetPoint"/>
                        <Array as="points">
                            <mxPoint x="55" y="143"/>
                            <mxPoint x="110" y="143"/>
                            <mxPoint x="110" y="182"/>
                        </Array>
                    </mxGeometry>
                </mxCell>
                <mxCell id="BmrQgxuJ7BoIYuR6pkmq-4" value="validar_criterios_logro()" style="edgeLabel;html=1;align=center;verticalAlign=middle;resizable=0;points=[];fontSize=13;fontFamily=Helvetica;fontColor=#000000;" parent="BmrQgxuJ7BoIYuR6pkmq-3" connectable="0" vertex="1">
                    <mxGeometry x="0.0217" y="-1" relative="1" as="geometry">
                        <mxPoint x="2" y="-1" as="offset"/>
                    </mxGeometry>
                </mxCell>
                <mxCell id="BZjlU1Gn6342W11Db-ve-4" value="Almacen de datos" style="shape=umlLifeline;perimeter=lifelinePerimeter;whiteSpace=wrap;html=1;container=1;collapsible=0;recursiveResize=0;outlineConnect=0;rounded=1;shadow=0;comic=0;labelBackgroundColor=none;strokeWidth=1;fontFamily=Helvetica;fontSize=13;align=center;fontColor=#000000;" parent="BZjlU1Gn6342W11Db-ve-1" vertex="1">
                    <mxGeometry x="910" y="240" width="100" height="400" as="geometry"/>
                </mxCell>
                <mxCell id="BZjlU1Gn6342W11Db-ve-5" value="" style="html=1;points=[];perimeter=orthogonalPerimeter;rounded=0;shadow=0;comic=0;labelBackgroundColor=none;strokeWidth=1;fontFamily=Helvetica;fontSize=13;align=center;fontColor=#000000;" parent="BZjlU1Gn6342W11Db-ve-4" vertex="1">
                    <mxGeometry x="45" y="269" width="10" height="30" as="geometry"/>
                </mxCell>
                <mxCell id="BZjlU1Gn6342W11Db-ve-6" value="Motor de gamificaciÃ³n" style="shape=umlLifeline;perimeter=lifelinePerimeter;whiteSpace=wrap;html=1;container=1;collapsible=0;recursiveResize=0;outlineConnect=0;rounded=1;shadow=0;comic=0;labelBackgroundColor=none;strokeWidth=1;fontFamily=Helvetica;fontSize=13;align=center;fontColor=#000000;" parent="BZjlU1Gn6342W11Db-ve-1" vertex="1">
                    <mxGeometry x="730" y="240" width="100" height="400" as="geometry"/>
                </mxCell>
                <mxCell id="BZjlU1Gn6342W11Db-ve-12" value="" style="html=1;points=[];perimeter=orthogonalPerimeter;rounded=0;shadow=0;comic=0;labelBackgroundColor=none;strokeWidth=1;fontFamily=Helvetica;fontSize=13;align=center;fontColor=#000000;" parent="BZjlU1Gn6342W11Db-ve-6" vertex="1">
                    <mxGeometry x="45" y="240" width="10" height="90" as="geometry"/>
                </mxCell>
                <mxCell id="BZjlU1Gn6342W11Db-ve-25" value="Marca tarea como completada" style="html=1;verticalAlign=bottom;endArrow=block;labelBackgroundColor=none;fontFamily=Helvetica;fontSize=13;edgeStyle=elbowEdgeStyle;elbow=vertical;entryX=-0.154;entryY=0.005;entryDx=0;entryDy=0;entryPerimeter=0;fontColor=#000000;" parent="BZjlU1Gn6342W11Db-ve-1" source="AWeogs08Qk4gKZ1RSESC-3" target="1uuJC2Imapp2htcUWDlj-4" edge="1">
                    <mxGeometry relative="1" as="geometry">
                        <mxPoint x="156" y="341" as="sourcePoint"/>
                        <mxPoint x="370" y="341" as="targetPoint"/>
                        <mxPoint as="offset"/>
                    </mxGeometry>
                </mxCell>
                <mxCell id="AWeogs08Qk4gKZ1RSESC-3" value="" style="shape=umlActor;verticalLabelPosition=bottom;verticalAlign=top;html=1;fontSize=13;fontFamily=Helvetica;fontColor=#000000;" parent="BZjlU1Gn6342W11Db-ve-1" vertex="1">
                    <mxGeometry x="90" y="270" width="56" height="120" as="geometry"/>
                </mxCell>
                <mxCell id="1uuJC2Imapp2htcUWDlj-3" value="GUI" style="shape=umlLifeline;perimeter=lifelinePerimeter;whiteSpace=wrap;html=1;container=1;collapsible=0;recursiveResize=0;outlineConnect=0;rounded=1;shadow=0;comic=0;labelBackgroundColor=none;strokeWidth=1;fontFamily=Helvetica;fontSize=13;align=center;fontColor=#000000;" parent="BZjlU1Gn6342W11Db-ve-1" vertex="1">
                    <mxGeometry x="340" y="240" width="100" height="400" as="geometry"/>
                </mxCell>
                <mxCell id="1uuJC2Imapp2htcUWDlj-4" value="" style="html=1;points=[];perimeter=orthogonalPerimeter;rounded=0;shadow=0;comic=0;labelBackgroundColor=none;strokeWidth=1;fontFamily=Helvetica;fontSize=13;align=center;fontColor=#000000;" parent="1uuJC2Imapp2htcUWDlj-3" vertex="1">
                    <mxGeometry x="45" y="100" width="10" height="270" as="geometry"/>
                </mxCell>
                <mxCell id="1uuJC2Imapp2htcUWDlj-5" value="completar_tarea()" style="html=1;verticalAlign=bottom;endArrow=block;labelBackgroundColor=none;fontFamily=Helvetica;fontSize=13;edgeStyle=elbowEdgeStyle;elbow=vertical;entryX=-0.133;entryY=0.007;entryDx=0;entryDy=0;entryPerimeter=0;fontColor=#000000;" parent="1uuJC2Imapp2htcUWDlj-3" target="BZjlU1Gn6342W11Db-ve-3" edge="1">
                    <mxGeometry relative="1" as="geometry">
                        <mxPoint x="55" y="120.44" as="sourcePoint"/>
                        <mxPoint x="205" y="120" as="targetPoint"/>
                        <mxPoint as="offset"/>
                    </mxGeometry>
                </mxCell>
                <mxCell id="BmrQgxuJ7BoIYuR6pkmq-5" value="solicitar_recompensa()" style="html=1;verticalAlign=bottom;endArrow=block;labelBackgroundColor=none;fontFamily=Helvetica;fontSize=13;edgeStyle=elbowEdgeStyle;elbow=vertical;entryX=0.069;entryY=0;entryDx=0;entryDy=0;entryPerimeter=0;fontColor=#000000;" parent="BZjlU1Gn6342W11Db-ve-1" target="BZjlU1Gn6342W11Db-ve-12" edge="1">
                    <mxGeometry relative="1" as="geometry">
                        <mxPoint x="585" y="479.78" as="sourcePoint"/>
                        <mxPoint x="755" y="479.78" as="targetPoint"/>
                        <Array as="points">
                            <mxPoint x="585" y="479.78"/>
                        </Array>
                    </mxGeometry>
                </mxCell>
                <mxCell id="BmrQgxuJ7BoIYuR6pkmq-7" value="&lt;font style=&quot;color: rgb(0, 0, 0);&quot;&gt;actualizar_estado()&lt;/font&gt;&lt;div&gt;&lt;font style=&quot;color: rgb(0, 0, 0);&quot;&gt;guardar_recompensa()&lt;/font&gt;&lt;/div&gt;" style="text;html=1;align=center;verticalAlign=middle;resizable=0;points=[];autosize=1;strokeColor=none;fillColor=none;fontSize=13;fontFamily=Helvetica;fontColor=#000000;" parent="BZjlU1Gn6342W11Db-ve-1" vertex="1">
                    <mxGeometry x="795" y="470" width="160" height="40" as="geometry"/>
                </mxCell>
                <mxCell id="BmrQgxuJ7BoIYuR6pkmq-8" value="" style="edgeStyle=none;orthogonalLoop=1;jettySize=auto;html=1;fontSize=13;fontFamily=Helvetica;entryX=-0.181;entryY=0.05;entryDx=0;entryDy=0;entryPerimeter=0;exitX=1.016;exitY=0.338;exitDx=0;exitDy=0;exitPerimeter=0;fontColor=#000000;endArrow=block;endFill=1;" parent="BZjlU1Gn6342W11Db-ve-1" source="BZjlU1Gn6342W11Db-ve-12" target="BZjlU1Gn6342W11Db-ve-5" edge="1">
                    <mxGeometry width="100" relative="1" as="geometry">
                        <mxPoint x="790" y="510" as="sourcePoint"/>
                        <mxPoint x="979.4999999999995" y="510" as="targetPoint"/>
                        <Array as="points"/>
                    </mxGeometry>
                </mxCell>
                <mxCell id="BmrQgxuJ7BoIYuR6pkmq-10" value="devolver_recompensa()" style="text;html=1;align=center;verticalAlign=middle;resizable=0;points=[];autosize=1;strokeColor=none;fillColor=none;fontSize=13;fontFamily=Helvetica;fontColor=#000000;" parent="BZjlU1Gn6342W11Db-ve-1" vertex="1">
                    <mxGeometry x="605" y="540" width="160" height="30" as="geometry"/>
                </mxCell>
                <mxCell id="BmrQgxuJ7BoIYuR6pkmq-12" value="notificar_usuario()" style="text;html=1;align=center;verticalAlign=middle;resizable=0;points=[];autosize=1;strokeColor=none;fillColor=none;fontSize=13;fontFamily=Helvetica;fontColor=#000000;" parent="BZjlU1Gn6342W11Db-ve-1" vertex="1">
                    <mxGeometry x="425" y="553" width="130" height="30" as="geometry"/>
                </mxCell>
                <mxCell id="BmrQgxuJ7BoIYuR6pkmq-13" value="" style="edgeStyle=none;orthogonalLoop=1;jettySize=auto;html=1;fontSize=13;fontFamily=Helvetica;exitX=-0.027;exitY=1.001;exitDx=0;exitDy=0;exitPerimeter=0;entryX=0.986;entryY=0.872;entryDx=0;entryDy=0;entryPerimeter=0;fontColor=#000000;endArrow=block;endFill=1;" parent="BZjlU1Gn6342W11Db-ve-1" source="BZjlU1Gn6342W11Db-ve-12" target="BZjlU1Gn6342W11Db-ve-3" edge="1">
                    <mxGeometry width="100" relative="1" as="geometry">
                        <mxPoint x="754.5" y="560" as="sourcePoint"/>
                        <mxPoint x="605" y="560" as="targetPoint"/>
                        <Array as="points"/>
                    </mxGeometry>
                </mxCell>
                <mxCell id="BmrQgxuJ7BoIYuR6pkmq-11" value="" style="edgeStyle=none;orthogonalLoop=1;jettySize=auto;html=1;fontSize=13;fontFamily=Helvetica;entryX=0.868;entryY=0.961;entryDx=0;entryDy=0;entryPerimeter=0;fontColor=#000000;endArrow=block;endFill=1;" parent="BZjlU1Gn6342W11Db-ve-1" target="1uuJC2Imapp2htcUWDlj-4" edge="1">
                    <mxGeometry width="100" relative="1" as="geometry">
                        <mxPoint x="581.8199999999999" y="600" as="sourcePoint"/>
                        <mxPoint x="400" y="600" as="targetPoint"/>
                        <Array as="points"/>
                    </mxGeometry>
                </mxCell>
                <mxCell id="UhbISyf0SqRSeg5SLqK8-2" value="&lt;span style=&quot;color: rgb(63, 63, 63); font-size: 25px;&quot;&gt;Diagrama de secuencia: Desbloquear un logro&lt;/span&gt;" style="text;strokeColor=none;align=center;fillColor=none;html=1;verticalAlign=middle;whiteSpace=wrap;rounded=0;" vertex="1" parent="BZjlU1Gn6342W11Db-ve-1">
                    <mxGeometry x="280" y="130" width="570" height="30" as="geometry"/>
                </mxCell>
            </root>
        </mxGraphModel>
    </diagram>
    <diagram name="Registro de nuevo usuario" id="ZYvKvGyOLKmhrFUV0dLJ">
        <mxGraphModel dx="3033" dy="1463" grid="1" gridSize="10" guides="1" tooltips="1" connect="1" arrows="1" fold="1" page="1" pageScale="1" pageWidth="1100" pageHeight="850" background="none" math="0" shadow="0">
            <root>
                <mxCell id="i85EvucI7J7w_0irZ_NS-0"/>
                <mxCell id="i85EvucI7J7w_0irZ_NS-1" parent="i85EvucI7J7w_0irZ_NS-0"/>
                <mxCell id="inZ4S5y22Q4VPXCLe4vD-2" value="" style="rounded=0;whiteSpace=wrap;html=1;" vertex="1" parent="i85EvucI7J7w_0irZ_NS-1">
                    <mxGeometry x="100" y="30" width="2070" height="1390" as="geometry"/>
                </mxCell>
                <mxCell id="-8bKeTAjWC7pd35Fjiy2-48" value="" style="edgeStyle=none;orthogonalLoop=1;jettySize=auto;html=1;exitX=0.079;exitY=1.003;exitDx=0;exitDy=0;exitPerimeter=0;entryX=1.067;entryY=0.637;entryDx=0;entryDy=0;entryPerimeter=0;fontSize=25;fontFamily=Helvetica;fontColor=#000000;" edge="1" parent="i85EvucI7J7w_0irZ_NS-1" source="-8bKeTAjWC7pd35Fjiy2-22" target="i85EvucI7J7w_0irZ_NS-6">
                    <mxGeometry width="100" relative="1" as="geometry">
                        <mxPoint x="1060" y="1060" as="sourcePoint"/>
                        <mxPoint x="960" y="1040" as="targetPoint"/>
                        <Array as="points"/>
                    </mxGeometry>
                </mxCell>
                <mxCell id="-8bKeTAjWC7pd35Fjiy2-32" value="" style="html=1;verticalAlign=bottom;endArrow=block;labelBackgroundColor=none;fontFamily=Helvetica;fontSize=25;elbow=vertical;entryX=0.032;entryY=-0.006;entryDx=0;entryDy=0;entryPerimeter=0;exitX=1;exitY=0.546;exitDx=0;exitDy=0;exitPerimeter=0;fontColor=#000000;" edge="1" parent="i85EvucI7J7w_0irZ_NS-1" source="i85EvucI7J7w_0irZ_NS-6" target="-8bKeTAjWC7pd35Fjiy2-22">
                    <mxGeometry relative="1" as="geometry">
                        <mxPoint x="960" y="960" as="sourcePoint"/>
                        <mxPoint x="1229.6399999999999" y="990" as="targetPoint"/>
                    </mxGeometry>
                </mxCell>
                <mxCell id="i85EvucI7J7w_0irZ_NS-3" value="GUI" style="shape=umlLifeline;perimeter=lifelinePerimeter;whiteSpace=wrap;html=1;container=1;collapsible=0;recursiveResize=0;outlineConnect=0;rounded=1;shadow=0;comic=0;labelBackgroundColor=none;strokeWidth=1;fontFamily=Helvetica;fontSize=25;align=center;fontColor=#000000;" parent="i85EvucI7J7w_0irZ_NS-1" vertex="1">
                    <mxGeometry x="510" y="281.5" width="100" height="1118.5" as="geometry"/>
                </mxCell>
                <mxCell id="-8bKeTAjWC7pd35Fjiy2-21" value="" style="html=1;points=[];perimeter=orthogonalPerimeter;rounded=0;shadow=0;comic=0;labelBackgroundColor=none;strokeWidth=1;fontFamily=Helvetica;fontSize=25;align=center;fontColor=#000000;" vertex="1" parent="i85EvucI7J7w_0irZ_NS-3">
                    <mxGeometry x="40" y="140" width="20" height="940" as="geometry"/>
                </mxCell>
                <mxCell id="i85EvucI7J7w_0irZ_NS-5" value="Gestor de Usuarios" style="shape=umlLifeline;perimeter=lifelinePerimeter;whiteSpace=wrap;html=1;container=1;collapsible=0;recursiveResize=0;outlineConnect=0;rounded=1;shadow=0;comic=0;labelBackgroundColor=none;strokeWidth=1;fontFamily=Helvetica;fontSize=25;align=center;size=70;fontColor=#000000;" parent="i85EvucI7J7w_0irZ_NS-1" vertex="1">
                    <mxGeometry x="830" y="280" width="190" height="1120" as="geometry"/>
                </mxCell>
                <mxCell id="i85EvucI7J7w_0irZ_NS-6" value="" style="html=1;points=[];perimeter=orthogonalPerimeter;rounded=0;shadow=0;comic=0;labelBackgroundColor=none;strokeWidth=1;fontFamily=Helvetica;fontSize=25;align=center;fontColor=#000000;" parent="i85EvucI7J7w_0irZ_NS-5" vertex="1">
                    <mxGeometry x="85" y="198" width="20" height="882" as="geometry"/>
                </mxCell>
                <mxCell id="-8bKeTAjWC7pd35Fjiy2-44" value="" style="edgeStyle=orthogonalEdgeStyle;orthogonalLoop=1;jettySize=auto;html=1;curved=1;entryX=1.085;entryY=0.289;entryDx=0;entryDy=0;entryPerimeter=0;exitX=0.878;exitY=0.227;exitDx=0;exitDy=0;exitPerimeter=0;fontSize=25;fontFamily=Helvetica;fontColor=#000000;" edge="1" parent="i85EvucI7J7w_0irZ_NS-5">
                    <mxGeometry width="100" relative="1" as="geometry">
                        <mxPoint x="105.00000000000017" y="416.52500000000003" as="sourcePoint"/>
                        <mxPoint x="109.14000000000027" y="484.4149999999999" as="targetPoint"/>
                        <Array as="points">
                            <mxPoint x="105.44" y="409.96"/>
                            <mxPoint x="182.44" y="409.96"/>
                            <mxPoint x="182.44" y="483.96"/>
                        </Array>
                    </mxGeometry>
                </mxCell>
                <mxCell id="-8bKeTAjWC7pd35Fjiy2-45" value="validar_datos()" style="edgeLabel;html=1;align=center;verticalAlign=middle;resizable=0;points=[];fontSize=25;fontFamily=Helvetica;fontColor=#000000;" vertex="1" connectable="0" parent="-8bKeTAjWC7pd35Fjiy2-44">
                    <mxGeometry x="0.0766" relative="1" as="geometry">
                        <mxPoint x="18" as="offset"/>
                    </mxGeometry>
                </mxCell>
                <mxCell id="-8bKeTAjWC7pd35Fjiy2-46" value="" style="edgeStyle=orthogonalEdgeStyle;orthogonalLoop=1;jettySize=auto;html=1;curved=1;entryX=1.085;entryY=0.289;entryDx=0;entryDy=0;entryPerimeter=0;exitX=0.878;exitY=0.227;exitDx=0;exitDy=0;exitPerimeter=0;fontSize=25;fontFamily=Helvetica;fontColor=#000000;" edge="1" parent="i85EvucI7J7w_0irZ_NS-5">
                    <mxGeometry width="100" relative="1" as="geometry">
                        <mxPoint x="105.00000000000023" y="536.565" as="sourcePoint"/>
                        <mxPoint x="109.14000000000033" y="604.4549999999999" as="targetPoint"/>
                        <Array as="points">
                            <mxPoint x="105.44000000000005" y="530"/>
                            <mxPoint x="182.44000000000005" y="530"/>
                            <mxPoint x="182.44000000000005" y="604"/>
                        </Array>
                    </mxGeometry>
                </mxCell>
                <mxCell id="-8bKeTAjWC7pd35Fjiy2-47" value="encriptar_contraseÃ±a()" style="edgeLabel;html=1;align=center;verticalAlign=middle;resizable=0;points=[];fontSize=25;fontFamily=Helvetica;fontColor=#000000;" vertex="1" connectable="0" parent="-8bKeTAjWC7pd35Fjiy2-46">
                    <mxGeometry x="0.0766" relative="1" as="geometry">
                        <mxPoint x="48" y="-1" as="offset"/>
                    </mxGeometry>
                </mxCell>
                <mxCell id="i85EvucI7J7w_0irZ_NS-7" value="Almacen de datos" style="shape=umlLifeline;perimeter=lifelinePerimeter;whiteSpace=wrap;html=1;container=1;collapsible=0;recursiveResize=0;outlineConnect=0;rounded=1;shadow=0;comic=0;labelBackgroundColor=none;strokeWidth=1;fontFamily=Helvetica;fontSize=25;align=center;size=60;fontColor=#000000;" parent="i85EvucI7J7w_0irZ_NS-1" vertex="1">
                    <mxGeometry x="1310" y="275" width="130" height="1125" as="geometry"/>
                </mxCell>
                <mxCell id="-8bKeTAjWC7pd35Fjiy2-23" value="" style="html=1;points=[];perimeter=orthogonalPerimeter;rounded=0;shadow=0;comic=0;labelBackgroundColor=none;strokeWidth=1;fontFamily=Helvetica;fontSize=25;align=center;fontColor=#000000;" vertex="1" parent="i85EvucI7J7w_0irZ_NS-7">
                    <mxGeometry x="55" y="280" width="20" height="570" as="geometry"/>
                </mxCell>
                <mxCell id="085viZxkmnhfPGsVRUxg-2" value="Perfil de Usuario" style="shape=umlLifeline;perimeter=lifelinePerimeter;whiteSpace=wrap;html=1;container=1;collapsible=0;recursiveResize=0;outlineConnect=0;rounded=1;shadow=0;comic=0;labelBackgroundColor=none;strokeWidth=1;fontFamily=Helvetica;fontSize=25;align=center;size=60;fontColor=#000000;" parent="i85EvucI7J7w_0irZ_NS-1" vertex="1">
                    <mxGeometry x="1600" y="281.5" width="140" height="1130" as="geometry"/>
                </mxCell>
                <mxCell id="-8bKeTAjWC7pd35Fjiy2-22" value="" style="html=1;points=[];perimeter=orthogonalPerimeter;rounded=0;shadow=0;comic=0;labelBackgroundColor=none;strokeWidth=1;fontFamily=Helvetica;fontSize=25;align=center;fontColor=#000000;" vertex="1" parent="085viZxkmnhfPGsVRUxg-2">
                    <mxGeometry x="60" y="678.5" width="20" height="80" as="geometry"/>
                </mxCell>
                <mxCell id="085viZxkmnhfPGsVRUxg-4" value="Notificador" style="shape=umlLifeline;perimeter=lifelinePerimeter;whiteSpace=wrap;html=1;container=1;collapsible=0;recursiveResize=0;outlineConnect=0;rounded=1;shadow=0;comic=0;labelBackgroundColor=none;strokeWidth=1;fontFamily=Helvetica;fontSize=25;align=center;size=50;fontColor=#000000;" parent="i85EvucI7J7w_0irZ_NS-1" vertex="1">
                    <mxGeometry x="1950" y="280.75" width="150" height="1120" as="geometry"/>
                </mxCell>
                <mxCell id="-8bKeTAjWC7pd35Fjiy2-24" value="" style="html=1;points=[];perimeter=orthogonalPerimeter;rounded=0;shadow=0;comic=0;labelBackgroundColor=none;strokeWidth=1;fontFamily=Helvetica;fontSize=25;align=center;fontColor=#000000;" vertex="1" parent="085viZxkmnhfPGsVRUxg-4">
                    <mxGeometry x="65" y="918.25" width="20" height="82" as="geometry"/>
                </mxCell>
                <mxCell id="qkJkbMGeEfhGHqW2Hmls-2" value="" style="edgeStyle=none;orthogonalLoop=1;jettySize=auto;html=1;rounded=0;fontSize=25;entryX=1.067;entryY=0.183;entryDx=0;entryDy=0;entryPerimeter=0;fontFamily=Helvetica;fontColor=#000000;" parent="i85EvucI7J7w_0irZ_NS-1" edge="1" target="i85EvucI7J7w_0irZ_NS-6">
                    <mxGeometry width="100" relative="1" as="geometry">
                        <mxPoint x="1364" y="640" as="sourcePoint"/>
                        <mxPoint x="950" y="639" as="targetPoint"/>
                        <Array as="points"/>
                    </mxGeometry>
                </mxCell>
                <mxCell id="qkJkbMGeEfhGHqW2Hmls-3" value="&lt;font style=&quot;color: rgb(0, 0, 0);&quot;&gt;verificar_usuario_existe()&lt;/font&gt;" style="text;html=1;align=center;verticalAlign=middle;resizable=0;points=[];autosize=1;strokeColor=none;fillColor=none;fontSize=25;fontFamily=Helvetica;fontColor=#000000;" parent="i85EvucI7J7w_0irZ_NS-1" vertex="1">
                    <mxGeometry x="1000" y="520" width="300" height="40" as="geometry"/>
                </mxCell>
                <mxCell id="-8bKeTAjWC7pd35Fjiy2-5" value="&lt;font style=&quot;color: rgb(0, 0, 0);&quot;&gt;iniciar_registro()&lt;/font&gt;" style="text;html=1;align=center;verticalAlign=middle;resizable=0;points=[];autosize=1;strokeColor=none;fillColor=none;fontSize=25;fontFamily=Helvetica;fontColor=#000000;" vertex="1" parent="i85EvucI7J7w_0irZ_NS-1">
                    <mxGeometry x="660" y="440" width="200" height="40" as="geometry"/>
                </mxCell>
                <mxCell id="-8bKeTAjWC7pd35Fjiy2-6" value="" style="html=1;verticalAlign=bottom;endArrow=block;labelBackgroundColor=none;fontFamily=Helvetica;fontSize=25;elbow=vertical;entryX=0.018;entryY=0.002;entryDx=0;entryDy=0;entryPerimeter=0;fontColor=#000000;" edge="1" parent="i85EvucI7J7w_0irZ_NS-1" target="i85EvucI7J7w_0irZ_NS-6">
                    <mxGeometry relative="1" as="geometry">
                        <mxPoint x="570" y="480" as="sourcePoint"/>
                        <mxPoint x="890" y="480" as="targetPoint"/>
                    </mxGeometry>
                </mxCell>
                <mxCell id="-8bKeTAjWC7pd35Fjiy2-8" value="&lt;font style=&quot;color: rgb(0, 0, 0);&quot;&gt;El mail no existe&lt;/font&gt;" style="text;html=1;align=center;verticalAlign=middle;resizable=0;points=[];autosize=1;strokeColor=none;fillColor=none;fontSize=25;fontFamily=Helvetica;fontColor=#000000;" vertex="1" parent="i85EvucI7J7w_0irZ_NS-1">
                    <mxGeometry x="1045" y="600" width="210" height="40" as="geometry"/>
                </mxCell>
                <mxCell id="-8bKeTAjWC7pd35Fjiy2-31" value="&lt;font style=&quot;color: rgb(0, 0, 0);&quot;&gt;clasificar_perfil()&lt;/font&gt;" style="text;html=1;align=center;verticalAlign=middle;resizable=0;points=[];autosize=1;strokeColor=none;fillColor=none;fontSize=25;fontFamily=Helvetica;fontColor=#000000;" vertex="1" parent="i85EvucI7J7w_0irZ_NS-1">
                    <mxGeometry x="1045" y="920" width="210" height="40" as="geometry"/>
                </mxCell>
                <mxCell id="-8bKeTAjWC7pd35Fjiy2-33" value="resultado_clasificaciÃ³n()" style="text;html=1;align=center;verticalAlign=middle;resizable=0;points=[];autosize=1;strokeColor=none;fillColor=none;fontSize=25;fontFamily=Helvetica;fontColor=#000000;" vertex="1" parent="i85EvucI7J7w_0irZ_NS-1">
                    <mxGeometry x="1005" y="990" width="290" height="40" as="geometry"/>
                </mxCell>
                <mxCell id="-8bKeTAjWC7pd35Fjiy2-35" value="" style="html=1;verticalAlign=bottom;endArrow=block;labelBackgroundColor=none;fontFamily=Helvetica;fontSize=25;elbow=vertical;entryX=-0.057;entryY=0.993;entryDx=0;entryDy=0;entryPerimeter=0;exitX=1.033;exitY=0.729;exitDx=0;exitDy=0;exitPerimeter=0;fontColor=#000000;" edge="1" parent="i85EvucI7J7w_0irZ_NS-1" source="i85EvucI7J7w_0irZ_NS-6" target="-8bKeTAjWC7pd35Fjiy2-23">
                    <mxGeometry relative="1" as="geometry">
                        <mxPoint x="960" y="1121" as="sourcePoint"/>
                        <mxPoint x="1360" y="1140" as="targetPoint"/>
                    </mxGeometry>
                </mxCell>
                <mxCell id="-8bKeTAjWC7pd35Fjiy2-36" value="&lt;font style=&quot;color: rgb(0, 0, 0);&quot;&gt;guardar_datos_usuario()&lt;/font&gt;" style="text;html=1;align=center;verticalAlign=middle;resizable=0;points=[];autosize=1;strokeColor=none;fillColor=none;fontSize=25;fontFamily=Helvetica;fontColor=#000000;" vertex="1" parent="i85EvucI7J7w_0irZ_NS-1">
                    <mxGeometry x="1000" y="1070" width="300" height="40" as="geometry"/>
                </mxCell>
                <mxCell id="-8bKeTAjWC7pd35Fjiy2-37" value="" style="html=1;verticalAlign=bottom;endArrow=block;labelBackgroundColor=none;fontFamily=Helvetica;fontSize=25;elbow=vertical;entryX=-0.008;entryY=0.024;entryDx=0;entryDy=0;entryPerimeter=0;exitX=0.986;exitY=0.819;exitDx=0;exitDy=0;exitPerimeter=0;fontColor=#000000;" edge="1" parent="i85EvucI7J7w_0irZ_NS-1" source="i85EvucI7J7w_0irZ_NS-6" target="-8bKeTAjWC7pd35Fjiy2-24">
                    <mxGeometry relative="1" as="geometry">
                        <mxPoint x="960" y="1202" as="sourcePoint"/>
                        <mxPoint x="1770" y="1202" as="targetPoint"/>
                    </mxGeometry>
                </mxCell>
                <mxCell id="-8bKeTAjWC7pd35Fjiy2-38" value="&lt;font style=&quot;color: rgb(0, 0, 0);&quot;&gt;enviar_mail_verificacion()&lt;/font&gt;" style="text;html=1;align=center;verticalAlign=middle;resizable=0;points=[];autosize=1;strokeColor=none;fillColor=none;fontSize=25;fontFamily=Helvetica;fontColor=#000000;" vertex="1" parent="i85EvucI7J7w_0irZ_NS-1">
                    <mxGeometry x="990" y="1150" width="310" height="40" as="geometry"/>
                </mxCell>
                <mxCell id="-8bKeTAjWC7pd35Fjiy2-43" value="notificar_registro_exitoso()" style="text;html=1;align=center;verticalAlign=middle;resizable=0;points=[];autosize=1;strokeColor=none;fillColor=none;fontSize=25;fontFamily=Helvetica;fontColor=#000000;" vertex="1" parent="i85EvucI7J7w_0irZ_NS-1">
                    <mxGeometry x="585" y="1310" width="320" height="40" as="geometry"/>
                </mxCell>
                <mxCell id="qkJkbMGeEfhGHqW2Hmls-36" value="" style="edgeStyle=none;orthogonalLoop=1;jettySize=auto;html=1;rounded=0;fontSize=25;endArrow=block;endFill=1;entryX=-0.015;entryY=0.002;entryDx=0;entryDy=0;entryPerimeter=0;fontFamily=Helvetica;fontColor=#000000;" parent="i85EvucI7J7w_0irZ_NS-1" edge="1" target="-8bKeTAjWC7pd35Fjiy2-21" source="IJS-qhuBeDl9POBQ1pDk-5">
                    <mxGeometry width="100" relative="1" as="geometry">
                        <mxPoint x="300" y="420" as="sourcePoint"/>
                        <mxPoint x="462" y="378" as="targetPoint"/>
                        <Array as="points"/>
                    </mxGeometry>
                </mxCell>
                <mxCell id="IJS-qhuBeDl9POBQ1pDk-5" value="" style="shape=umlActor;verticalLabelPosition=bottom;verticalAlign=top;html=1;fontSize=25;fontFamily=Helvetica;fontColor=#000000;" parent="i85EvucI7J7w_0irZ_NS-1" vertex="1">
                    <mxGeometry x="180" y="345" width="70" height="160" as="geometry"/>
                </mxCell>
                <mxCell id="-8bKeTAjWC7pd35Fjiy2-0" value="&lt;font style=&quot;color: rgb(0, 0, 0);&quot;&gt;Completa datos y&lt;/font&gt;&lt;div&gt;&lt;font style=&quot;color: rgb(0, 0, 0);&quot;&gt;envÃ­a formulario&lt;/font&gt;&lt;/div&gt;" style="text;html=1;align=center;verticalAlign=middle;resizable=0;points=[];autosize=1;strokeColor=none;fillColor=none;fontSize=25;fontFamily=Helvetica;fontColor=#000000;" vertex="1" parent="i85EvucI7J7w_0irZ_NS-1">
                    <mxGeometry x="305" y="345" width="220" height="70" as="geometry"/>
                </mxCell>
                <mxCell id="-8bKeTAjWC7pd35Fjiy2-49" style="edgeStyle=none;html=1;entryX=1.013;entryY=0.91;entryDx=0;entryDy=0;entryPerimeter=0;fontSize=25;fontFamily=Helvetica;fontColor=#000000;" edge="1" parent="i85EvucI7J7w_0irZ_NS-1" source="-8bKeTAjWC7pd35Fjiy2-24" target="i85EvucI7J7w_0irZ_NS-6">
                    <mxGeometry relative="1" as="geometry">
                        <mxPoint x="950" y="1281" as="targetPoint"/>
                    </mxGeometry>
                </mxCell>
                <mxCell id="-8bKeTAjWC7pd35Fjiy2-51" value="confirmacion_mail_enviado()" style="text;html=1;align=center;verticalAlign=middle;resizable=0;points=[];autosize=1;strokeColor=none;fillColor=none;fontSize=25;fontFamily=Helvetica;fontColor=#000000;" vertex="1" parent="i85EvucI7J7w_0irZ_NS-1">
                    <mxGeometry x="1665" y="1220" width="340" height="40" as="geometry"/>
                </mxCell>
                <mxCell id="-8bKeTAjWC7pd35Fjiy2-52" style="edgeStyle=none;html=1;entryX=0.974;entryY=1;entryDx=0;entryDy=0;entryPerimeter=0;fontSize=25;fontFamily=Helvetica;fontColor=#000000;" edge="1" parent="i85EvucI7J7w_0irZ_NS-1" target="-8bKeTAjWC7pd35Fjiy2-21">
                    <mxGeometry relative="1" as="geometry">
                        <mxPoint x="916.82" y="1360" as="sourcePoint"/>
                        <mxPoint x="573.1800000000002" y="1360" as="targetPoint"/>
                    </mxGeometry>
                </mxCell>
                <mxCell id="-8bKeTAjWC7pd35Fjiy2-53" style="edgeStyle=none;html=1;entryX=-0.033;entryY=0.007;entryDx=0;entryDy=0;entryPerimeter=0;fontSize=25;fontFamily=Helvetica;fontColor=#000000;" edge="1" parent="i85EvucI7J7w_0irZ_NS-1" source="i85EvucI7J7w_0irZ_NS-6" target="-8bKeTAjWC7pd35Fjiy2-23">
                    <mxGeometry relative="1" as="geometry"/>
                </mxCell>
                <mxCell id="zUMfpKkzA0j94jx-KN5H-0" value="&lt;span style=&quot;color: rgb(63, 63, 63);&quot;&gt;&lt;font style=&quot;font-size: 35px;&quot;&gt;Diagrama de secuencia: Registro de un nuevo usuario&lt;/font&gt;&lt;/span&gt;" style="text;strokeColor=none;align=center;fillColor=none;html=1;verticalAlign=middle;whiteSpace=wrap;rounded=0;" vertex="1" parent="i85EvucI7J7w_0irZ_NS-1">
                    <mxGeometry x="680" y="120" width="910" height="30" as="geometry"/>
                </mxCell>
            </root>
        </mxGraphModel>
    </diagram>
</mxfile>